<svg width="242" height="53" viewBox="0 0 242 53" fill="none" xmlns="http://www.w3.org/2000/svg">
<path d="M12.77 36.626C16.3468 34.9265 19.665 34.1211 22.8919 33.5923C24.3126 33.3594 25.7097 33.181 27.1109 33.0021C27.306 32.9772 27.5013 32.9522 27.6967 32.9271C29.2892 32.7226 30.8878 32.5081 32.497 32.2044C39.0011 30.977 45.5934 28.3039 53.4144 19.1241C60.9548 10.2736 73.5925 5.65762 84.4716 3.2678C89.8926 2.07696 94.8379 1.44709 98.428 1.11511C100.222 0.94918 101.677 0.857814 102.681 0.807962C102.986 0.792793 103.25 0.78147 103.469 0.77306V43.7599H0.989093C1.07248 43.6507 1.18523 43.5191 1.33763 43.3638C2.48307 42.1964 5.45187 40.1032 12.77 36.626Z" fill="white" stroke="#0085FF" stroke-width="1.5"/>
<path d="M0.752724 43.0737H95.9469C94.4727 42.453 92.7339 41.6713 90.683 40.6933C83.4194 37.2291 71.5347 32.8571 60.0869 29.5566C54.3655 27.9071 48.7682 26.5296 43.9243 25.6672C39.057 24.8007 35.0282 24.4693 32.405 24.8612C29.5228 25.2918 26.0263 24.9288 22.4501 24.1767C18.8617 23.4221 15.1344 22.2627 11.7674 21.0569C8.39834 19.8503 5.37727 18.5928 3.19891 17.6373C2.18532 17.1926 1.35336 16.813 0.752724 16.5338V43.0737Z" fill="white" stroke="#0085FF" stroke-width="1.5"/>
<rect x="30.1089" y="19.3877" width="27.8559" height="17.1377" fill="white" stroke="#0085FF" stroke-width="1.5"/>
<rect x="33.7622" y="21.9268" width="7.33896" height="5.48168" fill="#0085FF"/>
<rect x="46.9722" y="21.9268" width="7.33897" height="12.0597" fill="#0085FF"/>
<path d="M29.0787 19.5708L43.7894 6.09724L58.5001 19.5708H29.0787Z" fill="white" stroke="#0085FF" stroke-width="1.5"/>
<path d="M0.753014 27.9715V50.748H101.204C99.398 49.8441 96.3965 48.3802 91.4511 46.0216C85.3166 43.096 78.6364 42.7001 71.2334 42.2613C70.0115 42.1889 68.77 42.1153 67.5079 42.029C58.6468 41.423 48.9454 40.1793 38.521 34.0858C28.3823 28.1592 18.7943 26.6747 11.7447 26.6688C8.21895 26.6659 5.3291 27.0329 3.32575 27.3992C2.32426 27.5823 1.54498 27.765 1.01929 27.901C0.921715 27.9262 0.832893 27.9498 0.753014 27.9715Z" fill="white" stroke="#0085FF" stroke-width="1.5"/>
<path d="M12.7671 43.6026C17.9769 41.1271 23.6475 39.6484 29.5335 38.1135C31.8376 37.5127 34.1747 36.9032 36.5301 36.222C44.8502 33.8157 53.2566 30.5384 60.6951 23.5704C67.7879 16.9262 78.545 15.2799 87.6773 15.3473C92.2226 15.3808 96.3189 15.8384 99.2796 16.2881C100.759 16.5128 101.953 16.7352 102.776 16.9011C103.047 16.9559 103.279 17.0046 103.466 17.045V50.7364H0.986169C1.06956 50.6272 1.1823 50.4957 1.3347 50.3403C2.48014 49.1729 5.44895 47.0798 12.7671 43.6026Z" fill="white" stroke="#0085FF" stroke-width="1.5"/>
<path d="M113.133 20V3.08H116.205V10.568H116.253L123.717 3.08H127.461L119.229 11.216L127.869 20H124.077L116.253 12.176H116.205V20H113.133ZM134.461 20.24C133.133 20.24 131.989 19.992 131.029 19.496C130.069 19 129.325 18.296 128.797 17.384C128.285 16.472 128.029 15.392 128.029 14.144C128.029 12.928 128.277 11.864 128.773 10.952C129.285 10.04 129.981 9.328 130.861 8.816C131.757 8.288 132.773 8.024 133.909 8.024C135.573 8.024 136.885 8.552 137.845 9.608C138.821 10.664 139.309 12.104 139.309 13.928V14.816H130.909C131.133 16.912 132.333 17.96 134.509 17.96C135.165 17.96 135.821 17.864 136.477 17.672C137.133 17.464 137.733 17.144 138.277 16.712L139.117 18.728C138.557 19.192 137.853 19.56 137.005 19.832C136.157 20.104 135.309 20.24 134.461 20.24ZM134.029 10.064C133.149 10.064 132.437 10.336 131.893 10.88C131.349 11.424 131.021 12.16 130.909 13.088H136.813C136.749 12.112 136.477 11.368 135.997 10.856C135.533 10.328 134.877 10.064 134.029 10.064ZM147.309 20.24C146.077 20.24 145.005 19.992 144.093 19.496C143.181 18.984 142.477 18.264 141.981 17.336C141.485 16.408 141.237 15.32 141.237 14.072C141.237 12.824 141.485 11.752 141.981 10.856C142.477 9.944 143.181 9.248 144.093 8.768C145.005 8.272 146.077 8.024 147.309 8.024C148.061 8.024 148.805 8.144 149.541 8.384C150.277 8.624 150.885 8.96 151.365 9.392L150.477 11.48C150.061 11.112 149.589 10.832 149.061 10.64C148.549 10.448 148.053 10.352 147.573 10.352C146.533 10.352 145.725 10.68 145.149 11.336C144.589 11.976 144.309 12.896 144.309 14.096C144.309 15.28 144.589 16.216 145.149 16.904C145.725 17.576 146.533 17.912 147.573 17.912C148.037 17.912 148.533 17.816 149.061 17.624C149.589 17.432 150.061 17.144 150.477 16.76L151.365 18.872C150.885 19.288 150.269 19.624 149.517 19.88C148.781 20.12 148.045 20.24 147.309 20.24ZM157.199 20.24C156.351 20.24 155.591 20.08 154.919 19.76C154.263 19.424 153.743 18.976 153.359 18.416C152.991 17.856 152.807 17.224 152.807 16.52C152.807 15.656 153.031 14.976 153.479 14.48C153.927 13.968 154.655 13.6 155.663 13.376C156.671 13.152 158.023 13.04 159.719 13.04H160.559V12.536C160.559 11.736 160.383 11.16 160.031 10.808C159.679 10.456 159.087 10.28 158.255 10.28C157.599 10.28 156.927 10.384 156.239 10.592C155.551 10.784 154.855 11.088 154.151 11.504L153.287 9.464C153.703 9.176 154.191 8.928 154.751 8.72C155.327 8.496 155.927 8.328 156.551 8.216C157.191 8.088 157.791 8.024 158.351 8.024C160.063 8.024 161.335 8.424 162.167 9.224C162.999 10.008 163.415 11.232 163.415 12.896V20H160.607V18.128C160.335 18.784 159.903 19.304 159.311 19.688C158.719 20.056 158.015 20.24 157.199 20.24ZM157.823 18.176C158.607 18.176 159.255 17.904 159.767 17.36C160.295 16.816 160.559 16.128 160.559 15.296V14.768H159.743C158.239 14.768 157.191 14.888 156.599 15.128C156.023 15.352 155.735 15.768 155.735 16.376C155.735 16.904 155.919 17.336 156.287 17.672C156.655 18.008 157.167 18.176 157.823 18.176ZM166.708 20V8.264H169.636V10.064C169.988 9.424 170.476 8.928 171.1 8.576C171.724 8.208 172.444 8.024 173.26 8.024C175.02 8.024 176.172 8.792 176.716 10.328C177.084 9.608 177.612 9.048 178.3 8.648C178.988 8.232 179.772 8.024 180.652 8.024C183.292 8.024 184.612 9.632 184.612 12.848V20H181.612V12.968C181.612 12.072 181.46 11.416 181.156 11C180.868 10.584 180.372 10.376 179.668 10.376C178.884 10.376 178.268 10.656 177.82 11.216C177.372 11.76 177.148 12.52 177.148 13.496V20H174.148V12.968C174.148 12.072 173.996 11.416 173.692 11C173.404 10.584 172.916 10.376 172.228 10.376C171.444 10.376 170.828 10.656 170.38 11.216C169.932 11.76 169.708 12.52 169.708 13.496V20H166.708ZM191.771 20.24C190.923 20.24 190.163 20.08 189.491 19.76C188.835 19.424 188.315 18.976 187.931 18.416C187.563 17.856 187.379 17.224 187.379 16.52C187.379 15.656 187.603 14.976 188.051 14.48C188.499 13.968 189.227 13.6 190.235 13.376C191.243 13.152 192.595 13.04 194.291 13.04H195.131V12.536C195.131 11.736 194.955 11.16 194.603 10.808C194.251 10.456 193.659 10.28 192.827 10.28C192.171 10.28 191.499 10.384 190.811 10.592C190.123 10.784 189.427 11.088 188.723 11.504L187.859 9.464C188.275 9.176 188.763 8.928 189.323 8.72C189.899 8.496 190.499 8.328 191.123 8.216C191.763 8.088 192.363 8.024 192.923 8.024C194.635 8.024 195.907 8.424 196.739 9.224C197.571 10.008 197.987 11.232 197.987 12.896V20H195.179V18.128C194.907 18.784 194.475 19.304 193.883 19.688C193.291 20.056 192.587 20.24 191.771 20.24ZM192.395 18.176C193.179 18.176 193.827 17.904 194.339 17.36C194.867 16.816 195.131 16.128 195.131 15.296V14.768H194.315C192.811 14.768 191.763 14.888 191.171 15.128C190.595 15.352 190.307 15.768 190.307 16.376C190.307 16.904 190.491 17.336 190.859 17.672C191.227 18.008 191.739 18.176 192.395 18.176ZM206.608 20.24C203.504 20.24 201.952 18.704 201.952 15.632V10.52H199.696V8.264H201.952V4.76H204.952V8.264H208.504V10.52H204.952V15.464C204.952 16.232 205.12 16.808 205.456 17.192C205.792 17.576 206.336 17.768 207.088 17.768C207.312 17.768 207.544 17.744 207.784 17.696C208.024 17.632 208.272 17.568 208.528 17.504L208.984 19.712C208.696 19.872 208.328 20 207.88 20.096C207.448 20.192 207.024 20.24 206.608 20.24ZM214.507 20.24C213.659 20.24 212.899 20.08 212.227 19.76C211.571 19.424 211.051 18.976 210.667 18.416C210.299 17.856 210.115 17.224 210.115 16.52C210.115 15.656 210.339 14.976 210.787 14.48C211.235 13.968 211.963 13.6 212.971 13.376C213.979 13.152 215.331 13.04 217.027 13.04H217.867V12.536C217.867 11.736 217.691 11.16 217.339 10.808C216.987 10.456 216.395 10.28 215.563 10.28C214.907 10.28 214.235 10.384 213.547 10.592C212.859 10.784 212.163 11.088 211.459 11.504L210.595 9.464C211.011 9.176 211.499 8.928 212.059 8.72C212.635 8.496 213.235 8.328 213.859 8.216C214.499 8.088 215.099 8.024 215.659 8.024C217.371 8.024 218.643 8.424 219.475 9.224C220.307 10.008 220.723 11.232 220.723 12.896V20H217.915V18.128C217.643 18.784 217.211 19.304 216.619 19.688C216.027 20.056 215.323 20.24 214.507 20.24ZM215.131 18.176C215.915 18.176 216.563 17.904 217.075 17.36C217.603 16.816 217.867 16.128 217.867 15.296V14.768H217.051C215.547 14.768 214.499 14.888 213.907 15.128C213.331 15.352 213.043 15.768 213.043 16.376C213.043 16.904 213.227 17.336 213.595 17.672C213.963 18.008 214.475 18.176 215.131 18.176ZM223.968 20V8.264H226.896V10.088C227.296 9.416 227.832 8.904 228.504 8.552C229.192 8.2 229.96 8.024 230.808 8.024C233.576 8.024 234.96 9.632 234.96 12.848V20H231.96V12.992C231.96 12.08 231.784 11.416 231.432 11C231.096 10.584 230.568 10.376 229.848 10.376C228.968 10.376 228.264 10.656 227.736 11.216C227.224 11.76 226.968 12.488 226.968 13.4V20H223.968ZM121.269 49.24C119.397 49.24 117.813 48.888 116.517 48.184C115.237 47.48 114.261 46.48 113.589 45.184C112.917 43.888 112.581 42.352 112.581 40.576C112.581 38.784 112.925 37.24 113.613 35.944C114.301 34.632 115.293 33.624 116.589 32.92C117.885 32.2 119.437 31.84 121.245 31.84C122.429 31.84 123.541 32.016 124.581 32.368C125.621 32.704 126.485 33.176 127.173 33.784L126.141 36.184C125.389 35.592 124.621 35.168 123.837 34.912C123.053 34.656 122.189 34.528 121.245 34.528C119.453 34.528 118.093 35.048 117.165 36.088C116.253 37.128 115.797 38.624 115.797 40.576C115.797 42.544 116.269 44.04 117.213 45.064C118.157 46.088 119.557 46.6 121.413 46.6C121.941 46.6 122.477 46.56 123.021 46.48C123.581 46.384 124.133 46.248 124.677 46.072V42.136H120.789V39.856H127.245V47.992C126.461 48.376 125.533 48.68 124.461 48.904C123.389 49.128 122.325 49.24 121.269 49.24ZM136.501 49.24C135.173 49.24 134.029 48.992 133.069 48.496C132.109 48 131.365 47.296 130.837 46.384C130.325 45.472 130.069 44.392 130.069 43.144C130.069 41.928 130.317 40.864 130.813 39.952C131.325 39.04 132.021 38.328 132.901 37.816C133.797 37.288 134.813 37.024 135.949 37.024C137.613 37.024 138.925 37.552 139.885 38.608C140.861 39.664 141.349 41.104 141.349 42.928V43.816H132.949C133.173 45.912 134.373 46.96 136.549 46.96C137.205 46.96 137.861 46.864 138.517 46.672C139.173 46.464 139.773 46.144 140.317 45.712L141.157 47.728C140.597 48.192 139.893 48.56 139.045 48.832C138.197 49.104 137.349 49.24 136.501 49.24ZM136.069 39.064C135.189 39.064 134.477 39.336 133.933 39.88C133.389 40.424 133.061 41.16 132.949 42.088H138.853C138.789 41.112 138.517 40.368 138.037 39.856C137.573 39.328 136.917 39.064 136.069 39.064ZM149.253 49.24C146.149 49.24 144.597 47.704 144.597 44.632V39.52H142.341V37.264H144.597V33.76H147.597V37.264H151.149V39.52H147.597V44.464C147.597 45.232 147.765 45.808 148.101 46.192C148.437 46.576 148.981 46.768 149.733 46.768C149.957 46.768 150.189 46.744 150.429 46.696C150.669 46.632 150.917 46.568 151.173 46.504L151.629 48.712C151.341 48.872 150.973 49 150.525 49.096C150.093 49.192 149.669 49.24 149.253 49.24ZM157.152 49.24C156.304 49.24 155.544 49.08 154.872 48.76C154.216 48.424 153.696 47.976 153.312 47.416C152.944 46.856 152.76 46.224 152.76 45.52C152.76 44.656 152.984 43.976 153.432 43.48C153.88 42.968 154.608 42.6 155.616 42.376C156.624 42.152 157.976 42.04 159.672 42.04H160.512V41.536C160.512 40.736 160.336 40.16 159.984 39.808C159.632 39.456 159.04 39.28 158.208 39.28C157.552 39.28 156.88 39.384 156.192 39.592C155.504 39.784 154.808 40.088 154.104 40.504L153.24 38.464C153.656 38.176 154.144 37.928 154.704 37.72C155.28 37.496 155.88 37.328 156.504 37.216C157.144 37.088 157.744 37.024 158.304 37.024C160.016 37.024 161.288 37.424 162.12 38.224C162.952 39.008 163.368 40.232 163.368 41.896V49H160.56V47.128C160.288 47.784 159.856 48.304 159.264 48.688C158.672 49.056 157.968 49.24 157.152 49.24ZM157.776 47.176C158.56 47.176 159.208 46.904 159.72 46.36C160.248 45.816 160.512 45.128 160.512 44.296V43.768H159.696C158.192 43.768 157.144 43.888 156.552 44.128C155.976 44.352 155.688 44.768 155.688 45.376C155.688 45.904 155.872 46.336 156.24 46.672C156.608 47.008 157.12 47.176 157.776 47.176ZM170.909 49.24C169.917 49.24 168.989 49.12 168.125 48.88C167.261 48.64 166.541 48.296 165.965 47.848L166.733 45.88C167.325 46.28 167.989 46.592 168.725 46.816C169.461 47.024 170.197 47.128 170.933 47.128C171.701 47.128 172.269 47 172.637 46.744C173.021 46.472 173.213 46.12 173.213 45.688C173.213 45.016 172.717 44.584 171.725 44.392L169.325 43.936C167.293 43.552 166.277 42.496 166.277 40.768C166.277 40 166.485 39.336 166.901 38.776C167.333 38.216 167.925 37.784 168.677 37.48C169.429 37.176 170.293 37.024 171.269 37.024C172.101 37.024 172.901 37.144 173.669 37.384C174.437 37.608 175.093 37.952 175.637 38.416L174.821 40.384C174.357 40 173.797 39.696 173.141 39.472C172.501 39.248 171.885 39.136 171.293 39.136C170.509 39.136 169.925 39.272 169.541 39.544C169.173 39.816 168.989 40.176 168.989 40.624C168.989 41.328 169.445 41.76 170.357 41.92L172.757 42.376C173.797 42.568 174.581 42.92 175.109 43.432C175.653 43.944 175.925 44.632 175.925 45.496C175.925 46.664 175.469 47.584 174.557 48.256C173.645 48.912 172.429 49.24 170.909 49.24ZM182.396 49.24C181.548 49.24 180.788 49.08 180.116 48.76C179.46 48.424 178.94 47.976 178.556 47.416C178.188 46.856 178.004 46.224 178.004 45.52C178.004 44.656 178.228 43.976 178.676 43.48C179.124 42.968 179.852 42.6 180.86 42.376C181.868 42.152 183.22 42.04 184.916 42.04H185.756V41.536C185.756 40.736 185.58 40.16 185.228 39.808C184.876 39.456 184.284 39.28 183.452 39.28C182.796 39.28 182.124 39.384 181.436 39.592C180.748 39.784 180.052 40.088 179.348 40.504L178.484 38.464C178.9 38.176 179.388 37.928 179.948 37.72C180.524 37.496 181.124 37.328 181.748 37.216C182.388 37.088 182.988 37.024 183.548 37.024C185.26 37.024 186.532 37.424 187.364 38.224C188.196 39.008 188.612 40.232 188.612 41.896V49H185.804V47.128C185.532 47.784 185.1 48.304 184.508 48.688C183.916 49.056 183.212 49.24 182.396 49.24ZM183.02 47.176C183.804 47.176 184.452 46.904 184.964 46.36C185.492 45.816 185.756 45.128 185.756 44.296V43.768H184.94C183.436 43.768 182.388 43.888 181.796 44.128C181.22 44.352 180.932 44.768 180.932 45.376C180.932 45.904 181.116 46.336 181.484 46.672C181.852 47.008 182.364 47.176 183.02 47.176ZM191.857 49V37.264H194.785V39.088C195.185 38.416 195.721 37.904 196.393 37.552C197.081 37.2 197.849 37.024 198.697 37.024C201.465 37.024 202.849 38.632 202.849 41.848V49H199.849V41.992C199.849 41.08 199.673 40.416 199.321 40C198.985 39.584 198.457 39.376 197.737 39.376C196.857 39.376 196.153 39.656 195.625 40.216C195.113 40.76 194.857 41.488 194.857 42.4V49H191.857Z" fill="#0085FF"/>
</svg>
